<svg xmlns="http://www.w3.org/2000/svg" xmlns:xlink="http://www.w3.org/1999/xlink" contentStyleType="text/css" height="861px" preserveAspectRatio="none" style="width:684px;height:861px;background:#1B1B1B;" version="1.1" viewBox="0 0 684 861" width="684px" zoomAndPan="magnify"><defs/><g><rect fill="#1B1B1B" height="861" style="stroke:none;stroke-width:1.0;" width="684" x="0" y="0"/><!--cluster ToDoDB--><g id="cluster_ToDoDB"><path d="M8.5,6 L71.5,6 A3.75,3.75 0 0 1 74,8.5 L81,28.2969 L662.5,28.2969 A2.5,2.5 0 0 1 665,30.7969 L665,852.33 A2.5,2.5 0 0 1 662.5,854.83 L8.5,854.83 A2.5,2.5 0 0 1 6,852.33 L6,8.5 A2.5,2.5 0 0 1 8.5,6 " fill="none" style="stroke:#FFFFFF;stroke-width:1.5;"/><line style="stroke:#FFFFFF;stroke-width:1.5;" x1="6" x2="81" y1="28.2969" y2="28.2969"/><text fill="#FFFFFF" font-family="sans-serif" font-size="14" font-weight="bold" lengthAdjust="spacing" textLength="62" x="10" y="20.9951">ToDoDB</text></g><!--class User--><g id="elem_User"><rect codeLine="3" fill="#313139" height="194.6719" id="User" rx="2.5" ry="2.5" style="stroke:#E7E7E7;stroke-width:0.5;" width="230" x="413" y="41"/><ellipse cx="507.75" cy="57" fill="#2E5233" rx="11" ry="11" style="stroke:#E7E7E7;stroke-width:1.0;"/><path d="M510.7188,62.6406 Q510.1406,62.9375 509.5,63.0781 Q508.8594,63.2344 508.1563,63.2344 Q505.6563,63.2344 504.3281,61.5938 Q503.0156,59.9375 503.0156,56.8125 Q503.0156,53.6875 504.3281,52.0313 Q505.6563,50.375 508.1563,50.375 Q508.8594,50.375 509.5,50.5313 Q510.1563,50.6875 510.7188,50.9844 L510.7188,53.7031 Q510.0938,53.125 509.5,52.8594 Q508.9063,52.5781 508.2813,52.5781 Q506.9375,52.5781 506.25,53.6563 Q505.5625,54.7188 505.5625,56.8125 Q505.5625,58.9063 506.25,59.9844 Q506.9375,61.0469 508.2813,61.0469 Q508.9063,61.0469 509.5,60.7813 Q510.0938,60.5 510.7188,59.9219 L510.7188,62.6406 Z " fill="#FFFFFF"/><text fill="#FFFFFF" font-family="sans-serif" font-size="14" lengthAdjust="spacing" textLength="32" x="528.25" y="61.8467">User</text><line style="stroke:#E7E7E7;stroke-width:0.5;" x1="414" x2="642" y1="73" y2="73"/><ellipse cx="424" cy="86.6484" fill="none" rx="3" ry="3" style="stroke:#038048;stroke-width:1.0;"/><text fill="#FFFFFF" font-family="sans-serif" font-size="14" lengthAdjust="spacing" textLength="162" x="433" y="89.9951">UserID: uniqueidentifier</text><ellipse cx="424" cy="102.9453" fill="none" rx="3" ry="3" style="stroke:#038048;stroke-width:1.0;"/><text fill="#FFFFFF" font-family="sans-serif" font-size="14" lengthAdjust="spacing" textLength="58" x="433" y="106.292">Age: INT</text><line style="stroke:#E7E7E7;stroke-width:0.5;" x1="414" x2="642" y1="113.5938" y2="113.5938"/><ellipse cx="424" cy="127.2422" fill="#84BE84" rx="3" ry="3" style="stroke:#038048;stroke-width:1.0;"/><text fill="#FFFFFF" font-family="sans-serif" font-size="14" lengthAdjust="spacing" textLength="144" x="433" y="130.5889">Name: VARCHAR(50)</text><ellipse cx="424" cy="143.5391" fill="#84BE84" rx="3" ry="3" style="stroke:#038048;stroke-width:1.0;"/><text fill="#FFFFFF" font-family="sans-serif" font-size="14" lengthAdjust="spacing" textLength="172" x="433" y="146.8857">LastName: VARCHAR(50)</text><ellipse cx="424" cy="159.8359" fill="#84BE84" rx="3" ry="3" style="stroke:#038048;stroke-width:1.0;"/><text fill="#FFFFFF" font-family="sans-serif" font-size="14" lengthAdjust="spacing" textLength="204" x="433" y="163.1826">PhoneNumber: VARCHAR(50)</text><ellipse cx="424" cy="176.1328" fill="#84BE84" rx="3" ry="3" style="stroke:#038048;stroke-width:1.0;"/><text fill="#FFFFFF" font-family="sans-serif" font-size="14" lengthAdjust="spacing" textLength="176" x="433" y="179.4795">UserName: VARCHAR(20)</text><ellipse cx="424" cy="192.4297" fill="#84BE84" rx="3" ry="3" style="stroke:#038048;stroke-width:1.0;"/><text fill="#FFFFFF" font-family="sans-serif" font-size="14" lengthAdjust="spacing" textLength="171" x="433" y="195.7764">Password: VARCHAR(24)</text><ellipse cx="424" cy="208.7266" fill="#84BE84" rx="3" ry="3" style="stroke:#038048;stroke-width:1.0;"/><text fill="#FFFFFF" font-family="sans-serif" font-size="14" lengthAdjust="spacing" textLength="140" x="433" y="212.0732">Email: VARCHAR(30)</text><ellipse cx="424" cy="225.0234" fill="#84BE84" rx="3" ry="3" style="stroke:#038048;stroke-width:1.0;"/><text fill="#FFFFFF" font-family="sans-serif" font-size="14" lengthAdjust="spacing" textLength="158" x="433" y="228.3701">Country: VARCHAR(50)</text></g><!--class State--><g id="elem_State"><rect codeLine="15" fill="#313139" height="80.5938" id="State" rx="2.5" ry="2.5" style="stroke:#E7E7E7;stroke-width:0.5;" width="170" x="144" y="98.04"/><ellipse cx="206.75" cy="114.04" fill="#2E5233" rx="11" ry="11" style="stroke:#E7E7E7;stroke-width:1.0;"/><path d="M209.7188,119.6806 Q209.1406,119.9775 208.5,120.1181 Q207.8594,120.2744 207.1563,120.2744 Q204.6563,120.2744 203.3281,118.6338 Q202.0156,116.9775 202.0156,113.8525 Q202.0156,110.7275 203.3281,109.0713 Q204.6563,107.415 207.1563,107.415 Q207.8594,107.415 208.5,107.5713 Q209.1563,107.7275 209.7188,108.0244 L209.7188,110.7431 Q209.0938,110.165 208.5,109.8994 Q207.9063,109.6181 207.2813,109.6181 Q205.9375,109.6181 205.25,110.6963 Q204.5625,111.7588 204.5625,113.8525 Q204.5625,115.9463 205.25,117.0244 Q205.9375,118.0869 207.2813,118.0869 Q207.9063,118.0869 208.5,117.8213 Q209.0938,117.54 209.7188,116.9619 L209.7188,119.6806 Z " fill="#FFFFFF"/><text fill="#FFFFFF" font-family="sans-serif" font-size="14" lengthAdjust="spacing" textLength="36" x="227.25" y="118.8867">State</text><line style="stroke:#E7E7E7;stroke-width:0.5;" x1="145" x2="313" y1="130.04" y2="130.04"/><ellipse cx="155" cy="143.6884" fill="none" rx="3" ry="3" style="stroke:#038048;stroke-width:1.0;"/><text fill="#FFFFFF" font-family="sans-serif" font-size="14" lengthAdjust="spacing" textLength="81" x="164" y="147.0351">StateID: INT</text><line style="stroke:#E7E7E7;stroke-width:0.5;" x1="145" x2="313" y1="154.3369" y2="154.3369"/><ellipse cx="155" cy="167.9853" fill="#84BE84" rx="3" ry="3" style="stroke:#038048;stroke-width:1.0;"/><text fill="#FFFFFF" font-family="sans-serif" font-size="14" lengthAdjust="spacing" textLength="144" x="164" y="171.332">Name: VARCHAR(50)</text></g><!--class Project--><g id="elem_Project"><rect codeLine="20" fill="#313139" height="145.7813" id="Project" rx="2.5" ry="2.5" style="stroke:#E7E7E7;stroke-width:0.5;" width="227" x="237.5" y="312.67"/><ellipse cx="322.75" cy="328.67" fill="#2E5233" rx="11" ry="11" style="stroke:#E7E7E7;stroke-width:1.0;"/><path d="M325.7188,334.3106 Q325.1406,334.6075 324.5,334.7481 Q323.8594,334.9044 323.1563,334.9044 Q320.6563,334.9044 319.3281,333.2638 Q318.0156,331.6075 318.0156,328.4825 Q318.0156,325.3575 319.3281,323.7013 Q320.6563,322.045 323.1563,322.045 Q323.8594,322.045 324.5,322.2013 Q325.1563,322.3575 325.7188,322.6544 L325.7188,325.3731 Q325.0938,324.795 324.5,324.5294 Q323.9063,324.2481 323.2813,324.2481 Q321.9375,324.2481 321.25,325.3263 Q320.5625,326.3888 320.5625,328.4825 Q320.5625,330.5763 321.25,331.6544 Q321.9375,332.7169 323.2813,332.7169 Q323.9063,332.7169 324.5,332.4513 Q325.0938,332.17 325.7188,331.5919 L325.7188,334.3106 Z " fill="#FFFFFF"/><text fill="#FFFFFF" font-family="sans-serif" font-size="14" lengthAdjust="spacing" textLength="48" x="343.25" y="333.5167">Project</text><line style="stroke:#E7E7E7;stroke-width:0.5;" x1="238.5" x2="463.5" y1="344.67" y2="344.67"/><ellipse cx="248.5" cy="358.3184" fill="none" rx="3" ry="3" style="stroke:#038048;stroke-width:1.0;"/><text fill="#FFFFFF" font-family="sans-serif" font-size="14" lengthAdjust="spacing" textLength="93" x="257.5" y="361.6651">ProjectID: INT</text><ellipse cx="248.5" cy="374.6153" fill="none" rx="3" ry="3" style="stroke:#038048;stroke-width:1.0;"/><text fill="#FFFFFF" font-family="sans-serif" font-size="14" lengthAdjust="spacing" textLength="112" x="257.5" y="377.962">StartDate: DATE</text><ellipse cx="248.5" cy="390.9122" fill="none" rx="3" ry="3" style="stroke:#038048;stroke-width:1.0;"/><text fill="#FFFFFF" font-family="sans-serif" font-size="14" lengthAdjust="spacing" textLength="107" x="257.5" y="394.2589">EndDate: DATE</text><ellipse cx="248.5" cy="407.2091" fill="none" rx="3" ry="3" style="stroke:#038048;stroke-width:1.0;"/><text fill="#FFFFFF" font-family="sans-serif" font-size="14" lengthAdjust="spacing" textLength="168" x="257.5" y="410.5557">DateCreated: DATETIME</text><line style="stroke:#E7E7E7;stroke-width:0.5;" x1="238.5" x2="463.5" y1="417.8575" y2="417.8575"/><ellipse cx="248.5" cy="431.5059" fill="#84BE84" rx="3" ry="3" style="stroke:#038048;stroke-width:1.0;"/><text fill="#FFFFFF" font-family="sans-serif" font-size="14" lengthAdjust="spacing" textLength="144" x="257.5" y="434.8526">Name: VARCHAR(50)</text><ellipse cx="248.5" cy="447.8028" fill="#84BE84" rx="3" ry="3" style="stroke:#038048;stroke-width:1.0;"/><text fill="#FFFFFF" font-family="sans-serif" font-size="14" lengthAdjust="spacing" textLength="201" x="257.5" y="451.1495">Description: VARCHAR(1000)</text></g><!--class UserProject--><g id="elem_UserProject"><rect codeLine="29" fill="#313139" height="80.5938" id="UserProject" rx="2.5" ry="2.5" style="stroke:#E7E7E7;stroke-width:0.5;" width="188" x="346" y="551.75"/><ellipse cx="395.75" cy="567.75" fill="#2E5233" rx="11" ry="11" style="stroke:#E7E7E7;stroke-width:1.0;"/><path d="M398.7188,573.3906 Q398.1406,573.6875 397.5,573.8281 Q396.8594,573.9844 396.1563,573.9844 Q393.6563,573.9844 392.3281,572.3438 Q391.0156,570.6875 391.0156,567.5625 Q391.0156,564.4375 392.3281,562.7813 Q393.6563,561.125 396.1563,561.125 Q396.8594,561.125 397.5,561.2813 Q398.1563,561.4375 398.7188,561.7344 L398.7188,564.4531 Q398.0938,563.875 397.5,563.6094 Q396.9063,563.3281 396.2813,563.3281 Q394.9375,563.3281 394.25,564.4063 Q393.5625,565.4688 393.5625,567.5625 Q393.5625,569.6563 394.25,570.7344 Q394.9375,571.7969 396.2813,571.7969 Q396.9063,571.7969 397.5,571.5313 Q398.0938,571.25 398.7188,570.6719 L398.7188,573.3906 Z " fill="#FFFFFF"/><text fill="#FFFFFF" font-family="sans-serif" font-size="14" lengthAdjust="spacing" textLength="80" x="416.25" y="572.5967">UserProject</text><line style="stroke:#E7E7E7;stroke-width:0.5;" x1="347" x2="533" y1="583.75" y2="583.75"/><ellipse cx="357" cy="597.3984" fill="none" rx="3" ry="3" style="stroke:#038048;stroke-width:1.0;"/><text fill="#FFFFFF" font-family="sans-serif" font-size="14" lengthAdjust="spacing" textLength="162" x="366" y="600.7451">UserID: uniqueidentifier</text><ellipse cx="357" cy="613.6953" fill="none" rx="3" ry="3" style="stroke:#038048;stroke-width:1.0;"/><text fill="#FFFFFF" font-family="sans-serif" font-size="14" lengthAdjust="spacing" textLength="93" x="366" y="617.042">ProjectID: INT</text><line style="stroke:#E7E7E7;stroke-width:0.5;" x1="347" x2="533" y1="624.3438" y2="624.3438"/></g><!--class Issue--><g id="elem_Issue"><rect codeLine="34" fill="#313139" height="113.1875" id="Issue" rx="2.5" ry="2.5" style="stroke:#E7E7E7;stroke-width:0.5;" width="227" x="53.5" y="535.45"/><ellipse cx="144.25" cy="551.45" fill="#2E5233" rx="11" ry="11" style="stroke:#E7E7E7;stroke-width:1.0;"/><path d="M147.2188,557.0906 Q146.6406,557.3875 146,557.5281 Q145.3594,557.6844 144.6563,557.6844 Q142.1563,557.6844 140.8281,556.0438 Q139.5156,554.3875 139.5156,551.2625 Q139.5156,548.1375 140.8281,546.4813 Q142.1563,544.825 144.6563,544.825 Q145.3594,544.825 146,544.9813 Q146.6563,545.1375 147.2188,545.4344 L147.2188,548.1531 Q146.5938,547.575 146,547.3094 Q145.4063,547.0281 144.7813,547.0281 Q143.4375,547.0281 142.75,548.1063 Q142.0625,549.1688 142.0625,551.2625 Q142.0625,553.3563 142.75,554.4344 Q143.4375,555.4969 144.7813,555.4969 Q145.4063,555.4969 146,555.2313 Q146.5938,554.95 147.2188,554.3719 L147.2188,557.0906 Z " fill="#FFFFFF"/><text fill="#FFFFFF" font-family="sans-serif" font-size="14" lengthAdjust="spacing" textLength="37" x="164.75" y="556.2967">Issue</text><line style="stroke:#E7E7E7;stroke-width:0.5;" x1="54.5" x2="279.5" y1="567.45" y2="567.45"/><ellipse cx="64.5" cy="581.0984" fill="none" rx="3" ry="3" style="stroke:#038048;stroke-width:1.0;"/><text fill="#FFFFFF" font-family="sans-serif" font-size="14" lengthAdjust="spacing" textLength="82" x="73.5" y="584.4451">IssueID: INT</text><ellipse cx="64.5" cy="597.3953" fill="none" rx="3" ry="3" style="stroke:#038048;stroke-width:1.0;"/><text fill="#FFFFFF" font-family="sans-serif" font-size="14" lengthAdjust="spacing" textLength="168" x="73.5" y="600.742">DateCreated: DATETIME</text><line style="stroke:#E7E7E7;stroke-width:0.5;" x1="54.5" x2="279.5" y1="608.0438" y2="608.0438"/><ellipse cx="64.5" cy="621.6922" fill="#84BE84" rx="3" ry="3" style="stroke:#038048;stroke-width:1.0;"/><text fill="#FFFFFF" font-family="sans-serif" font-size="14" lengthAdjust="spacing" textLength="144" x="73.5" y="625.0389">Name: VARCHAR(50)</text><ellipse cx="64.5" cy="637.9891" fill="#84BE84" rx="3" ry="3" style="stroke:#038048;stroke-width:1.0;"/><text fill="#FFFFFF" font-family="sans-serif" font-size="14" lengthAdjust="spacing" textLength="201" x="73.5" y="641.3357">Description: VARCHAR(1000)</text></g><!--class Event--><g id="elem_Event"><rect codeLine="41" fill="#313139" height="113.1875" id="Event" rx="2.5" ry="2.5" style="stroke:#E7E7E7;stroke-width:0.5;" width="227" x="237.5" y="725.64"/><ellipse cx="327.25" cy="741.64" fill="#2E5233" rx="11" ry="11" style="stroke:#E7E7E7;stroke-width:1.0;"/><path d="M330.2188,747.2806 Q329.6406,747.5775 329,747.7181 Q328.3594,747.8744 327.6563,747.8744 Q325.1563,747.8744 323.8281,746.2338 Q322.5156,744.5775 322.5156,741.4525 Q322.5156,738.3275 323.8281,736.6713 Q325.1563,735.015 327.6563,735.015 Q328.3594,735.015 329,735.1713 Q329.6563,735.3275 330.2188,735.6244 L330.2188,738.3431 Q329.5938,737.765 329,737.4994 Q328.4063,737.2181 327.7813,737.2181 Q326.4375,737.2181 325.75,738.2963 Q325.0625,739.3588 325.0625,741.4525 Q325.0625,743.5463 325.75,744.6244 Q326.4375,745.6869 327.7813,745.6869 Q328.4063,745.6869 329,745.4213 Q329.5938,745.14 330.2188,744.5619 L330.2188,747.2806 Z " fill="#FFFFFF"/><text fill="#FFFFFF" font-family="sans-serif" font-size="14" lengthAdjust="spacing" textLength="39" x="347.75" y="746.4867">Event</text><line style="stroke:#E7E7E7;stroke-width:0.5;" x1="238.5" x2="463.5" y1="757.64" y2="757.64"/><ellipse cx="248.5" cy="771.2884" fill="none" rx="3" ry="3" style="stroke:#038048;stroke-width:1.0;"/><text fill="#FFFFFF" font-family="sans-serif" font-size="14" lengthAdjust="spacing" textLength="84" x="257.5" y="774.6351">EventID: INT</text><ellipse cx="248.5" cy="787.5853" fill="none" rx="3" ry="3" style="stroke:#038048;stroke-width:1.0;"/><text fill="#FFFFFF" font-family="sans-serif" font-size="14" lengthAdjust="spacing" textLength="145" x="257.5" y="790.932">StartDate: DATETIME</text><ellipse cx="248.5" cy="803.8822" fill="none" rx="3" ry="3" style="stroke:#038048;stroke-width:1.0;"/><text fill="#FFFFFF" font-family="sans-serif" font-size="14" lengthAdjust="spacing" textLength="140" x="257.5" y="807.2289">EndDate: DATETIME</text><line style="stroke:#E7E7E7;stroke-width:0.5;" x1="238.5" x2="463.5" y1="814.5306" y2="814.5306"/><ellipse cx="248.5" cy="828.1791" fill="#84BE84" rx="3" ry="3" style="stroke:#038048;stroke-width:1.0;"/><text fill="#FFFFFF" font-family="sans-serif" font-size="14" lengthAdjust="spacing" textLength="201" x="257.5" y="831.5257">Description: VARCHAR(1000)</text></g><!--link User to Project--><g id="link_User_Project"><path codeLine="48" d="M458.3,235.91 C439.92,261.37 420.4,288.41 403.13,312.34 " fill="none" id="User-Project" style="stroke:#E7E7E7;stroke-width:1.0;"/><text fill="#FFFFFF" font-family="sans-serif" font-size="13" lengthAdjust="spacing" textLength="32" x="435" y="278.7369">owns</text><text fill="#FFFFFF" font-family="sans-serif" font-size="13" lengthAdjust="spacing" textLength="8" x="444.8877" y="255.6981">1</text><text fill="#FFFFFF" font-family="sans-serif" font-size="13" lengthAdjust="spacing" textLength="10" x="397.6221" y="301.7195">N</text></g><!--link State to Project--><g id="link_State_Project"><path codeLine="49" d="M248.74,179.01 C266.61,214.93 293.37,268.73 315.04,312.29 " fill="none" id="State-Project" style="stroke:#E7E7E7;stroke-width:1.0;"/><text fill="#FFFFFF" font-family="sans-serif" font-size="13" lengthAdjust="spacing" textLength="23" x="298" y="278.7369">has</text><text fill="#FFFFFF" font-family="sans-serif" font-size="13" lengthAdjust="spacing" textLength="8" x="243.2486" y="198.7651">1</text><text fill="#FFFFFF" font-family="sans-serif" font-size="13" lengthAdjust="spacing" textLength="10" x="301.136" y="301.6648">N</text></g><!--link User to UserProject--><g id="link_User_UserProject"><path codeLine="50" d="M518.22,236.1 C510.77,299.76 498.89,384.66 482,458.45 C474.73,490.23 463.45,525.37 454.41,551.48 " fill="none" id="User-UserProject" style="stroke:#E7E7E7;stroke-width:1.0;"/><text fill="#FFFFFF" font-family="sans-serif" font-size="13" lengthAdjust="spacing" textLength="75" x="509" y="390.1269">participates</text><text fill="#FFFFFF" font-family="sans-serif" font-size="13" lengthAdjust="spacing" textLength="8" x="509.208" y="255.9021">1</text><text fill="#FFFFFF" font-family="sans-serif" font-size="13" lengthAdjust="spacing" textLength="10" x="445.9685" y="540.5968">N</text></g><!--link Project to UserProject--><g id="link_Project_UserProject"><path codeLine="51" d="M382.5,458.95 C396.05,490.08 411.37,525.27 422.78,551.49 " fill="none" id="Project-UserProject" style="stroke:#E7E7E7;stroke-width:1.0;"/><text fill="#FFFFFF" font-family="sans-serif" font-size="13" lengthAdjust="spacing" textLength="23" x="401" y="501.5169">has</text><text fill="#FFFFFF" font-family="sans-serif" font-size="13" lengthAdjust="spacing" textLength="8" x="377.0352" y="478.48">1</text><text fill="#FFFFFF" font-family="sans-serif" font-size="13" lengthAdjust="spacing" textLength="10" x="409.0998" y="540.6085">N</text></g><!--link Project to Issue--><g id="link_Project_Issue"><path codeLine="52" d="M285.87,458.95 C263.33,483.99 238.44,511.66 217.28,535.17 " fill="none" id="Project-Issue" style="stroke:#E7E7E7;stroke-width:1.0;"/><text fill="#FFFFFF" font-family="sans-serif" font-size="13" lengthAdjust="spacing" textLength="54" x="260" y="501.5169">contains</text><text fill="#FFFFFF" font-family="sans-serif" font-size="13" lengthAdjust="spacing" textLength="8" x="271.4971" y="478.48">1</text><text fill="#FFFFFF" font-family="sans-serif" font-size="13" lengthAdjust="spacing" textLength="10" x="212.7985" y="524.3994">N</text></g><!--link State to Issue--><g id="link_State_Issue"><path codeLine="53" d="M181.45,179.01 C147.05,211.03 103.35,259.38 84,312.67 C61.89,373.57 66.12,396.18 84,458.45 C91.8,485.6 106.96,512.58 122.21,535.04 " fill="none" id="State-Issue" style="stroke:#E7E7E7;stroke-width:1.0;"/><text fill="#FFFFFF" font-family="sans-serif" font-size="13" lengthAdjust="spacing" textLength="23" x="85" y="390.1269">has</text><text fill="#FFFFFF" font-family="sans-serif" font-size="13" lengthAdjust="spacing" textLength="8" x="165.2342" y="198.7651">1</text><text fill="#FFFFFF" font-family="sans-serif" font-size="13" lengthAdjust="spacing" textLength="10" x="106.1418" y="524.2536">N</text></g><!--link User to Issue--><g id="link_User_Issue"><path codeLine="54" d="M412.71,195.92 C385.91,209.02 357.48,222.87 331,235.67 C259.59,270.21 212.65,245.8 170,312.67 C127.31,379.6 138.17,475.24 151.43,535.2 " fill="none" id="User-Issue" style="stroke:#E7E7E7;stroke-width:1.0;"/><text fill="#FFFFFF" font-family="sans-serif" font-size="13" lengthAdjust="spacing" textLength="48" x="171" y="390.1269">creates</text><text fill="#FFFFFF" font-family="sans-serif" font-size="13" lengthAdjust="spacing" textLength="8" x="397.068" y="196.1997">1</text><text fill="#FFFFFF" font-family="sans-serif" font-size="13" lengthAdjust="spacing" textLength="10" x="138.923" y="524.4331">N</text></g><!--link Issue to Event--><g id="link_Issue_Event"><path codeLine="55" d="M221.71,649 C245.23,673.05 272.66,701.11 296.19,725.17 " fill="none" id="Issue-Event" style="stroke:#E7E7E7;stroke-width:1.0;"/><text fill="#FFFFFF" font-family="sans-serif" font-size="13" lengthAdjust="spacing" textLength="51" x="265" y="691.7069">involves</text><text fill="#FFFFFF" font-family="sans-serif" font-size="13" lengthAdjust="spacing" textLength="8" x="219.5733" y="668.5273">1</text><text fill="#FFFFFF" font-family="sans-serif" font-size="13" lengthAdjust="spacing" textLength="10" x="278.9007" y="714.3763">N</text></g><!--link User to Event--><g id="link_User_Event"><path codeLine="56" d="M571.25,236.14 C580.24,260.63 588.38,287.22 593,312.67 C619.85,460.74 636.14,524.56 551,648.64 C529.2,680.42 497.04,706.54 464.86,726.95 " fill="none" id="User-Event" style="stroke:#E7E7E7;stroke-width:1.0;"/><text fill="#FFFFFF" font-family="sans-serif" font-size="13" lengthAdjust="spacing" textLength="62" x="614" y="501.5169">organizes</text><text fill="#FFFFFF" font-family="sans-serif" font-size="13" lengthAdjust="spacing" textLength="8" x="566.0098" y="255.6158">1</text><text fill="#FFFFFF" font-family="sans-serif" font-size="13" lengthAdjust="spacing" textLength="10" x="472.4745" y="719.9991">N</text></g><!--SRC=[hLDTJuCm57tVhxZXIMEMR7wyz0q7YIHAbec-LwXRTMknBLlKxB_R5YXiwvmF9eJaddDwUkwzKEBy7Sy911cFU7GRmFS0G3_v4ai9Jv88Ym1Ss2A945ICVbI45eGf-ag9QEWKhmY2vt0skGjdPpUZymQ_nr8TuyAvXfCqQyhfWZEILgiN8dng4s3NwT9nKnrtmqNHuwvRBbvXkko8AtTemYkcnEV-NTk16y2Zmegu2TZAZA2BxEkiTtug-1l9bNDewjCU1e-8p0Kj5UMieyUZaHFeF495EXE2ACpYjbrM7606c0YYtqMDPyb3l1lLJ7S_xecL7tJJiqkahBh9sUgVklv3B_5Q9tMNsshtyht9DGu7q-lXlyQoLzkV9HW7C1n2a0PkzmZuXaajg3ychsA1fSUXln84fOvCSrfg4oDkYQFwsjCZgrU38ETCOUgFrchymPo3NODHr4XFKgy00MLhlbmJdqihuMAE6VtIci7s1m00]--></g></svg>